<svg xmlns="http://www.w3.org/2000/svg" width="128" height="160" viewBox="0 0 128 160">
  <defs>
    <linearGradient id="fade" x1="1" y1="1" x2=".1" y2="0"><stop stop-color="#fff" stop-opacity=".98"/><stop offset=".62" stop-color="#fff" stop-opacity=".66"/><stop offset="1" stop-color="#fff" stop-opacity=".2"/></linearGradient>
  </defs>
  <path d="M110 144C81 145 51 134 34 112 18 91 19 67 37 60c-3-18 9-35 27-36 18-1 28 12 25 27 16 1 25 13 22 28-3 15-14 28-25 37 12 4 20 12 24 28z" fill="url(#fade)" opacity=".9"/>
  <path d="M105 142C72 125 58 103 61 78c2-14 11-26 24-32M88 130c-24-12-35-27-34-44" fill="none" stroke="#fff" stroke-width="4" stroke-linecap="round" opacity=".38"/>
  <circle cx="26" cy="103" r="4" fill="#fff" opacity=".4"/><circle cx="20" cy="88" r="2" fill="#fff" opacity=".3"/>
</svg>
