<svg xmlns="http://www.w3.org/2000/svg" width="112" height="112" viewBox="0 0 112 112"><title>be_zh_04_03_flag_wei_emblem_base</title><defs><filter id="inkGlobal"><feTurbulence type="fractalNoise" baseFrequency=".018 .065" numOctaves="2" seed="5" result="grain"/><feDisplacementMap in="SourceGraphic" in2="grain" scale="1.35"/></filter><clipPath id="safe"><rect x="8" y="8" width="96" height="96"/></clipPath></defs><g clip-path="url(#safe)" filter="url(#inkGlobal)"><path d="M59.60 35.35Q76.92 32.27 79.81 30.34Q82.70 28.42 85.78 29.96Q88.86 31.50 90.78 33.04Q92.71 34.58 90.59 36.31Q88.47 38.04 87.51 40.35Q86.55 42.66 82.70 50.75Q78.85 58.83 77.31 54.21L68.84 55.37Q67.68 55.75 69.99 58.06Q72.30 60.37 70.95 62.30Q69.61 64.22 68.45 70.38Q67.30 76.54 67.68 82.89Q68.07 89.25 78.65 89.82Q89.24 90.40 92.32 88.86Q95.40 87.32 96.36 84.43Q97.33 81.55 98.10 78.66Q98.87 75.77 99.06 80.58Q99.25 85.40 100.21 88.28Q101.18 91.17 98.67 92.52Q96.17 93.87 90.97 94.83Q85.78 95.79 80.58 95.41Q75.38 95.02 70.57 93.87Q65.76 92.71 64.60 88.28Q63.45 83.86 64.60 76.54L66.53 63.84Q67.30 58.83 66.91 59.22L64.99 63.45Q63.06 67.30 59.21 72.11Q55.36 76.93 50.36 79.81Q45.35 82.70 49.78 78.27Q54.21 73.85 58.06 68.26Q61.91 62.68 64.22 56.14L59.98 56.52Q59.21 59.22 58.44 58.06Q57.67 56.91 55.94 50.55Q54.21 44.20 53.24 41.31Q52.28 38.43 50.74 36.89Q49.20 35.35 51.70 35.54Q54.21 35.73 55.75 35.73Q58.44 34.19 62.87 27.84Q67.30 21.49 67.30 19.95Q67.30 18.02 68.07 16.87Q68.84 15.71 73.84 18.02Q78.85 20.33 74.42 22.45Q69.99 24.57 59.60 35.35M41.50 62.68Q42.27 58.45 41.89 56.71Q41.50 54.98 44.58 56.52Q47.66 58.06 47.85 59.02Q48.05 59.99 46.89 62.30Q45.74 64.61 44.58 67.88Q43.43 71.15 39.19 77.70Q43.04 79.62 46.12 81.74Q49.20 83.86 49.01 87.32Q48.82 90.79 45.35 87.51Q41.89 84.24 37.27 80.78Q28.80 88.86 21.87 90.98Q14.94 93.10 18.02 91.17Q21.10 89.25 25.14 86.36Q29.18 83.47 33.80 78.47Q28.41 75.39 26.68 74.81Q24.95 74.23 25.52 72.69Q26.10 71.15 27.64 66.92Q18.40 68.07 16.48 68.65Q14.55 69.23 12.43 67.30Q10.32 65.38 13.01 65.38Q16.09 65.38 28.80 64.22Q29.57 60.76 29.18 58.83Q28.80 56.91 30.91 57.68Q33.03 58.45 33.99 59.41Q34.96 60.37 34.19 61.53Q33.42 62.68 33.42 63.45Q38.04 63.07 41.50 62.68M37.27 26.11Q39.96 28.42 39.58 30.15Q39.19 31.88 39.19 33.81Q41.50 33.42 43.81 32.84Q46.12 32.27 47.66 33.61Q49.20 34.96 46.89 35.54Q44.58 36.12 38.81 36.89L38.81 42.28Q42.66 41.51 44.97 42.28Q47.28 43.05 47.66 46.13Q48.05 49.21 44.58 47.47Q41.12 45.74 38.81 44.20Q38.81 53.06 38.04 56.33Q37.27 59.60 35.34 57.10Q33.42 54.60 34.38 51.90Q35.34 49.21 35.34 41.89Q31.88 46.90 27.64 51.13Q23.41 55.37 18.79 57.10Q14.17 58.83 19.75 54.02Q25.33 49.21 32.65 38.04Q28.03 38.81 25.33 39.77Q22.64 40.74 19.17 38.62Q15.71 36.50 20.71 36.31Q25.72 36.12 35.34 34.19Q35.34 31.88 34.96 29.57Q34.57 27.26 34.57 26.88Q21.87 29.19 30.72 25.72Q39.58 22.26 41.12 20.14Q42.66 18.02 43.81 18.02Q45.35 18.02 48.24 20.52Q51.13 23.03 48.24 23.41Q45.35 23.80 37.27 26.11M84.62 73.85Q83.47 72.31 82.89 70.38Q82.31 68.46 85.78 69.61Q89.24 70.77 90.20 73.46Q91.17 76.16 90.20 77.50Q89.24 78.85 88.28 78.47Q87.32 78.08 85.78 75.77Q75 79.24 73.46 80.97Q71.92 82.70 70.38 80.39Q68.84 78.08 69.22 77.50Q69.61 76.93 71.53 75.19Q73.46 73.46 75.57 68.26Q77.69 63.07 77.50 59.99Q77.31 56.91 78.65 57.48Q80 58.06 82.50 59.99Q85.01 61.91 83.27 63.26Q81.54 64.61 78.08 70.19Q74.61 75.77 75.19 76.16Q75.77 76.54 84.62 73.85M71.53 42.28Q72.69 41.89 74.61 41.31Q76.54 40.74 77.50 42.08Q78.46 43.43 76.73 44.20Q75 44.97 70.76 45.74Q69.99 49.59 68.84 52.67Q73.46 51.90 78.46 51.13L81.54 41.51Q83.47 36.12 83.08 34.58Q82.70 33.04 79.62 33.42Q76.54 33.81 69.61 35.35Q72.30 36.50 72.11 37.85Q71.92 39.20 71.53 42.28M56.52 38.04Q57.29 40.74 58.06 44.97Q58.83 49.21 59.98 54.60L65.37 53.44Q66.14 49.21 66.53 46.51Q61.52 46.90 61.52 46.13Q61.52 44.97 62.87 44.59Q64.22 44.20 66.91 43.05Q67.68 36.50 66.53 36.12Q61.91 36.89 56.52 38.04M32.26 66.15Q29.57 70.38 28.80 73.08Q31.49 74.23 35.73 76.54Q38.42 72.69 39.77 68.84Q41.12 64.99 32.26 66.15" fill="#d0a342" stroke="#d0a342" stroke-width="2.5" stroke-linejoin="round"/></g></svg>