<svg xmlns="http://www.w3.org/2000/svg" width="448" height="448" viewBox="0 0 448 448"><title>be_feng_03_01_feng_glyph_base</title><defs><filter id="inkGlobal"><feTurbulence type="fractalNoise" baseFrequency=".018 .065" numOctaves="2" seed="5" result="grain"/><feDisplacementMap in="SourceGraphic" in2="grain" scale="1.35"/></filter><clipPath id="safe"><rect x="8" y="8" width="432" height="432"/></clipPath></defs><g clip-path="url(#safe)" filter="url(#inkGlobal)"><path d="M267.56 87.84Q295.91 86.26 301.42 81.54Q306.93 76.81 314.02 79.96Q321.11 83.11 332.92 88.63Q344.73 94.14 332.92 99.65Q321.11 105.16 291.18 147.69Q311.66 161.86 337.65 172.10Q363.63 182.34 391.20 188.64Q418.76 194.94 410.10 198.09Q401.43 201.24 373.87 205.96Q346.31 210.69 325.05 191.79Q303.78 172.89 280.16 158.71L259.68 176.04Q291.18 183.91 286.46 190.21Q281.73 196.51 281.73 207.54Q325.83 198.09 322.68 207.54Q319.53 216.99 280.16 223.29L280.16 243.76Q295.91 242.19 303.78 242.19Q313.23 242.19 317.17 246.13Q321.11 250.06 311.66 252.43Q302.21 254.79 280.16 259.51L280.16 279.99Q305.36 276.84 329.77 271.33Q354.18 265.81 367.57 276.84Q380.96 287.86 360.48 288.65Q340.01 289.44 280.16 297.31Q280.16 358.74 277.01 379.21Q273.86 399.69 269.92 400.48Q265.98 401.26 263.62 378.43Q261.26 355.59 261.26 298.89Q225.03 305.19 211.65 308.34Q198.26 311.49 185.66 305.19Q173.06 298.89 195.90 296.53Q218.73 294.16 261.26 284.71L261.26 262.66Q250.23 265.81 240.78 265.81Q231.33 265.81 223.46 261.09Q215.58 256.36 228.18 254.79Q240.78 253.21 261.26 248.49L261.26 228.01Q234.48 232.74 222.67 229.59Q210.86 226.44 219.52 223.29Q228.18 220.14 261.26 213.84Q261.26 201.24 260.47 194.15Q259.68 187.06 253.38 182.34Q237.63 193.36 227.40 202.03Q217.16 210.69 197.47 218.56Q177.78 226.44 208.50 201.24Q239.21 176.04 264.41 147.69Q250.23 136.66 234.48 130.36Q212.43 153.99 197.47 160.29Q182.51 166.59 199.05 150.84Q215.58 135.09 236.06 101.23Q256.53 67.36 254.17 55.55Q251.81 43.74 262.83 49.25Q273.86 54.76 280.95 61.06Q288.03 67.36 282.52 69.73Q277.01 72.09 267.56 87.84M139.98 193.36Q144.71 201.24 143.13 207.54Q141.56 213.84 141.56 221.71Q154.16 216.99 163.61 215.41Q173.06 213.84 180.15 219.35Q187.23 224.86 174.63 229.59Q162.03 234.31 141.56 242.19L139.98 302.04Q199.83 267.39 189.60 279.20Q179.36 291.01 158.10 309.91Q136.83 328.81 126.60 344.56Q116.36 360.31 107.70 342.99Q99.03 325.66 112.42 315.43Q125.81 305.19 125.81 248.49Q103.76 256.36 92.73 257.94Q81.71 259.51 71.47 256.36Q61.23 253.21 74.62 248.49Q88.01 243.76 125.81 229.59Q125.81 216.99 121.08 198.09Q111.63 194.94 106.12 191Q100.61 187.06 118.72 182.34Q136.83 177.61 149.43 171.31Q162.03 165.01 171.48 170.53Q180.93 176.04 167.55 182.34Q154.16 188.64 139.98 193.36M124.23 141.39Q86.43 199.66 56.51 218.56Q26.58 237.46 39.97 222.50Q53.36 207.54 71.47 185.49Q89.58 163.44 104.55 139.03Q119.51 114.61 129.75 94.14Q139.98 73.66 136.83 61.06Q133.68 48.46 145.50 54.76Q157.31 61.06 165.97 67.36Q174.63 73.66 168.33 77.60Q162.03 81.54 132.11 128.79Q163.61 120.91 175.42 115.40Q187.23 109.89 198.26 118.55Q209.28 127.21 179.36 134.30Q149.43 141.39 124.23 141.39M240.78 122.49Q262.83 130.36 273.86 136.66Q278.58 130.36 287.25 118.55Q295.91 106.74 299.06 95.71Q269.13 97.29 262.83 94.14Q250.23 109.89 240.78 122.49" fill="#e7fbff"/></g></svg>