<svg xmlns="http://www.w3.org/2000/svg" width="448" height="448" viewBox="0 0 448 448"><title>be_feng_03_02_feng_afterimage_base</title><defs><filter id="b"><feGaussianBlur stdDeviation="12"/></filter><filter id="inkGlobal"><feTurbulence type="fractalNoise" baseFrequency=".018 .065" numOctaves="2" seed="5" result="grain"/><feDisplacementMap in="SourceGraphic" in2="grain" scale="1.35"/></filter><clipPath id="safe"><rect x="25" y="25" width="398" height="398"/></clipPath></defs><g clip-path="url(#safe)" filter="url(#inkGlobal)"><path d="M263.65 93.89Q290.74 92.39 296 87.87Q301.27 83.36 308.04 86.37Q314.82 89.38 326.10 94.64Q337.39 99.91 326.10 105.18Q314.82 110.45 286.22 151.08Q305.79 164.63 330.62 174.41Q355.45 184.19 381.79 190.21Q408.13 196.23 399.85 199.24Q391.57 202.25 365.23 206.77Q338.90 211.28 318.58 193.22Q298.26 175.16 275.69 161.62L256.12 178.17Q286.22 185.70 281.71 191.72Q277.19 197.74 277.19 208.27Q319.33 199.24 316.32 208.27Q313.31 217.30 275.69 223.32L275.69 242.89Q290.74 241.38 298.26 241.38Q307.29 241.38 311.05 245.14Q314.82 248.91 305.79 251.16Q296.76 253.42 275.69 257.94L275.69 277.50Q299.77 274.49 323.09 269.22Q346.42 263.96 359.21 274.49Q372.01 285.03 352.44 285.78Q332.88 286.53 275.69 294.06Q275.69 352.75 272.68 372.32Q269.67 391.88 265.90 392.63Q262.14 393.39 259.88 371.56Q257.63 349.74 257.63 295.56Q223.01 301.58 210.22 304.59Q197.43 307.60 185.39 301.58Q173.35 295.56 195.17 293.30Q216.99 291.05 257.63 282.02L257.63 260.95Q247.09 263.96 238.06 263.96Q229.03 263.96 221.51 259.44Q213.98 254.93 226.02 253.42Q238.06 251.92 257.63 247.40L257.63 227.84Q232.04 232.35 220.75 229.34Q209.47 226.33 217.74 223.32Q226.02 220.31 257.63 214.29Q257.63 202.25 256.87 195.48Q256.12 188.71 250.10 184.19Q235.05 194.73 225.27 203Q215.49 211.28 196.67 218.81Q177.86 226.33 207.21 202.25Q236.56 178.17 260.64 151.08Q247.09 140.55 232.04 134.53Q210.97 157.10 196.67 163.12Q182.38 169.14 198.18 154.09Q213.98 139.04 233.55 106.68Q253.11 74.33 250.85 63.04Q248.60 51.75 259.13 57.02Q269.67 62.29 276.44 68.31Q283.21 74.33 277.94 76.58Q272.68 78.84 263.65 93.89M141.74 194.73Q146.26 202.25 144.75 208.27Q143.25 214.29 143.25 221.82Q155.29 217.30 164.32 215.80Q173.35 214.29 180.12 219.56Q186.89 224.83 174.85 229.34Q162.81 233.86 143.25 241.38L141.74 298.57Q198.93 265.46 189.15 276.75Q179.37 288.04 159.05 306.10Q138.73 324.16 128.95 339.21Q119.17 354.26 110.89 337.70Q102.61 321.15 115.40 311.36Q128.20 301.58 128.20 247.40Q107.13 254.93 96.59 256.43Q86.06 257.94 76.27 254.93Q66.49 251.92 79.28 247.40Q92.08 242.89 128.20 229.34Q128.20 217.30 123.68 199.24Q114.65 196.23 109.38 192.47Q104.12 188.71 121.42 184.19Q138.73 179.68 150.77 173.66Q162.81 167.64 171.84 172.90Q180.87 178.17 168.08 184.19Q155.29 190.21 141.74 194.73M126.69 145.06Q90.57 200.75 61.98 218.81Q33.38 236.87 46.17 222.57Q58.97 208.27 76.27 187.20Q93.58 166.13 107.88 142.80Q122.18 119.48 131.96 99.91Q141.74 80.35 138.73 68.31Q135.72 56.27 147.01 62.29Q158.30 68.31 166.57 74.33Q174.85 80.35 168.83 84.11Q162.81 87.87 134.22 133.02Q164.32 125.50 175.60 120.23Q186.89 114.96 197.43 123.24Q207.96 131.52 179.37 138.29Q150.77 145.06 126.69 145.06M238.06 127Q259.13 134.53 269.67 140.55Q274.18 134.53 282.46 123.24Q290.74 111.95 293.75 101.42Q265.15 102.92 259.13 99.91Q247.09 114.96 238.06 127" fill="#77b9dd" filter="url(#b)" opacity=".55"/></g></svg>