<svg xmlns="http://www.w3.org/2000/svg" width="256" height="256" viewBox="0 0 256 256"><title>be_feng_07_02_wave_right_base</title><defs><filter id="r"><feTurbulence baseFrequency=".03 .08" numOctaves="2" seed="37" result="n"/><feDisplacementMap in="SourceGraphic" in2="n" scale="5"/></filter><filter id="inkGlobal"><feTurbulence type="fractalNoise" baseFrequency=".018 .065" numOctaves="2" seed="5" result="grain"/><feDisplacementMap in="SourceGraphic" in2="grain" scale="1.35"/></filter><clipPath id="safe"><rect x="8" y="8" width="240" height="240"/></clipPath></defs><g clip-path="url(#safe)" filter="url(#inkGlobal)"><g filter="url(#r)"><path d="M10 246Q70 210 99 146Q126 82 181 49Q224 23 239 101Q210 79 187 104Q170 123 184 148Q150 130 132 158Q116 183 140 203Q75 186 10 246Z" fill="#205f83"/><path d="M21 237Q79 181 103 104Q118 55 161 33Q112 31 85 77Q72 101 84 127Q53 118 31 145Q74 149 88 178Q54 181 21 237Z" fill="#3d8fab" opacity=".8"/><path d="M207 103Q181 70 153 105Q133 128 156 154" fill="none" stroke="#e4faf9" stroke-width="12" stroke-linecap="round"/><g fill="#86c6d4"><circle cx="198" cy="30" r="7"/><circle cx="150" cy="18" r="5"/><path d="M226 158l-19-12-3 23z"/></g></g></g></svg>