<svg xmlns="http://www.w3.org/2000/svg" width="256" height="256" viewBox="0 0 256 256"><title>be_feng_07_01_wave_left_base</title><defs><filter id="r"><feTurbulence baseFrequency=".025 .09" numOctaves="2" seed="31" result="n"/><feDisplacementMap in="SourceGraphic" in2="n" scale="5"/></filter><filter id="inkGlobal"><feTurbulence type="fractalNoise" baseFrequency=".018 .065" numOctaves="2" seed="5" result="grain"/><feDisplacementMap in="SourceGraphic" in2="grain" scale="1.35"/></filter><clipPath id="safe"><rect x="8" y="8" width="240" height="240"/></clipPath></defs><g clip-path="url(#safe)" filter="url(#inkGlobal)"><g filter="url(#r)"><path d="M246 246Q188 211 154 139Q126 76 69 54Q29 40 20 112Q49 85 76 112Q91 129 78 153Q108 136 127 155Q148 177 123 199Q182 186 246 246Z" fill="#246f91"/><path d="M235 237Q174 184 154 106Q142 57 105 39Q154 35 177 78Q190 103 177 128Q207 121 225 144Q184 151 172 179Q205 183 235 237Z" fill="#4297b5" opacity=".78"/><path d="M49 110Q74 77 105 108Q127 130 101 156" fill="none" stroke="#e4faf9" stroke-width="12" stroke-linecap="round"/><g fill="#8ac9d6"><circle cx="65" cy="35" r="8"/><circle cx="112" cy="22" r="5"/><path d="M29 157l18-11 4 22z"/></g></g></g></svg>