<svg xmlns="http://www.w3.org/2000/svg" width="224" height="256" viewBox="0 0 224 256"><title>be_zh_06_01_wei_echo_base</title><defs><filter id="inkGlobal"><feTurbulence type="fractalNoise" baseFrequency=".018 .065" numOctaves="2" seed="5" result="grain"/><feDisplacementMap in="SourceGraphic" in2="grain" scale="1.35"/></filter><clipPath id="safe"><rect x="8" y="8" width="208" height="240"/></clipPath></defs><g clip-path="url(#safe)" filter="url(#inkGlobal)"><path d="M119.37 85.76Q154.81 79.46 160.71 75.52Q166.62 71.58 172.92 74.73Q179.22 77.88 183.16 81.03Q187.10 84.18 182.76 87.72Q178.43 91.27 176.46 95.99Q174.50 100.72 166.62 117.26Q158.75 133.79 155.60 124.34L138.27 126.71Q135.91 127.49 140.63 132.22Q145.36 136.94 142.60 140.88Q139.85 144.82 137.48 157.42Q135.12 170.02 135.91 183.01Q136.70 196.01 158.35 197.19Q180.01 198.37 186.31 195.22Q192.61 192.07 194.58 186.16Q196.55 180.26 198.12 174.35Q199.70 168.44 200.09 178.29Q200.48 188.13 202.45 194.04Q204.42 199.94 199.30 202.70Q194.18 205.46 183.55 207.42Q172.92 209.39 162.29 208.61Q151.66 207.82 141.81 205.46Q131.97 203.09 129.61 194.04Q127.25 184.98 129.61 170.02L133.55 144.03Q135.12 133.79 134.33 134.58L130.40 143.24Q126.46 151.12 118.58 160.96Q110.71 170.81 100.47 176.71Q90.23 182.62 99.29 173.56Q108.35 164.51 116.22 153.09Q124.10 141.67 128.82 128.28L120.16 129.07Q118.58 134.58 117.01 132.22Q115.43 129.86 111.89 116.86Q108.35 103.87 106.38 97.96Q104.41 92.06 101.26 88.91Q98.11 85.76 103.23 86.15Q108.35 86.54 111.50 86.54Q117.01 83.39 126.06 70.40Q135.12 57.41 135.12 54.26Q135.12 50.32 136.70 47.96Q138.27 45.59 148.51 50.32Q158.75 55.04 149.69 59.37Q140.63 63.71 119.37 85.76M82.36 141.67Q83.93 133.01 83.15 129.46Q82.36 125.92 88.66 129.07Q94.96 132.22 95.35 134.19Q95.75 136.16 93.38 140.88Q91.02 145.61 88.66 152.30Q86.30 158.99 77.63 172.38Q85.51 176.32 91.81 180.65Q98.11 184.98 97.71 192.07Q97.32 199.16 90.23 192.46Q83.15 185.77 73.70 178.68Q56.37 195.22 42.20 199.55Q28.02 203.88 34.32 199.94Q40.62 196.01 48.89 190.10Q57.16 184.19 66.61 173.96Q55.58 167.66 52.04 166.47Q48.50 165.29 49.68 162.14Q50.86 158.99 54.01 150.33Q35.11 152.69 31.17 153.87Q27.23 155.06 22.90 151.12Q18.57 147.18 24.08 147.18Q30.38 147.18 56.37 144.82Q57.95 137.73 57.16 133.79Q56.37 129.86 60.70 131.43Q65.03 133.01 67 134.97Q68.97 136.94 67.40 139.31Q65.82 141.67 65.82 143.24Q75.27 142.46 82.36 141.67M73.70 66.86Q79.21 71.58 78.42 75.12Q77.63 78.67 77.63 82.61Q82.36 81.82 87.08 80.64Q91.81 79.46 94.96 82.21Q98.11 84.97 93.38 86.15Q88.66 87.33 76.85 88.91L76.85 99.93Q84.72 98.36 89.45 99.93Q94.17 101.51 94.96 107.81Q95.75 114.11 88.66 110.56Q81.57 107.02 76.85 103.87Q76.85 121.98 75.27 128.67Q73.70 135.37 69.76 130.25Q65.82 125.13 67.79 119.62Q69.76 114.11 69.76 99.14Q62.67 109.38 54.01 118.04Q45.35 126.71 35.90 130.25Q26.45 133.79 37.86 123.95Q49.28 114.11 64.25 91.27Q54.80 92.84 49.28 94.81Q43.77 96.78 36.68 92.45Q29.60 88.12 39.83 87.72Q50.07 87.33 69.76 83.39Q69.76 78.67 68.97 73.94Q68.18 69.22 68.18 68.43Q42.20 73.16 60.31 66.07Q78.42 58.98 81.57 54.65Q84.72 50.32 87.08 50.32Q90.23 50.32 96.14 55.44Q102.05 60.56 96.14 61.34Q90.23 62.13 73.70 66.86M170.56 164.51Q168.20 161.36 167.01 157.42Q165.83 153.48 172.92 155.84Q180.01 158.21 181.98 163.72Q183.95 169.23 181.98 171.99Q180.01 174.74 178.04 173.96Q176.07 173.17 172.92 168.44Q150.87 175.53 147.72 179.07Q144.57 182.62 141.42 177.89Q138.27 173.17 139.06 171.99Q139.85 170.81 143.78 167.26Q147.72 163.72 152.05 153.09Q156.38 142.46 155.99 136.16Q155.60 129.86 158.35 131.04Q161.11 132.22 166.23 136.16Q171.35 140.09 167.80 142.85Q164.26 145.61 157.17 157.02Q150.08 168.44 151.26 169.23Q152.45 170.02 170.56 164.51M143.78 99.93Q146.15 99.14 150.08 97.96Q154.02 96.78 155.99 99.54Q157.96 102.29 154.41 103.87Q150.87 105.44 142.21 107.02Q140.63 114.89 138.27 121.19Q147.72 119.62 157.96 118.04L164.26 98.36Q168.20 87.33 167.41 84.18Q166.62 81.03 160.32 81.82Q154.02 82.61 139.85 85.76Q145.36 88.12 144.96 90.87Q144.57 93.63 143.78 99.93M113.07 91.27Q114.65 96.78 116.22 105.44Q117.80 114.11 120.16 125.13L131.18 122.77Q132.76 114.11 133.55 108.59Q123.31 109.38 123.31 107.81Q123.31 105.44 126.06 104.66Q128.82 103.87 134.33 101.51Q135.91 88.12 133.55 87.33Q124.10 88.91 113.07 91.27M63.46 148.76Q57.95 157.42 56.37 162.93Q61.88 165.29 70.55 170.02Q76.06 162.14 78.81 154.27Q81.57 146.39 63.46 148.76" fill="#737a82"/></g></svg>