<svg xmlns="http://www.w3.org/2000/svg" width="768" height="256" viewBox="0 0 768 256"><title>be_smy_06_05_name_complete_glow_base</title><defs><filter id="b"><feGaussianBlur stdDeviation="8"/></filter><clipPath id="safe"><rect x="25" y="25" width="718" height="206"/></clipPath></defs><g clip-path="url(#safe)"><g fill="none" stroke="#a9bae2" stroke-width="5" filter="url(#b)" opacity=".65"><path d="M94.23 68.04Q87.03 63 94.95 63Q102.87 63 114.39 61.56Q125.91 60.12 139.59 57.24Q153.27 54.36 159.03 51.48Q164.79 48.60 171.99 51.48Q179.19 54.36 184.59 59.40Q189.99 64.44 185.67 71.64Q181.35 78.84 181.71 101.16Q182.07 123.48 182.43 147.96Q182.79 172.44 180.27 183.96Q177.75 195.48 170.19 202.68Q162.63 209.88 159.75 201.24Q156.87 192.60 148.59 184.32Q140.31 176.04 149.67 180.36Q159.03 184.68 163.35 184.32Q167.67 183.96 169.47 163.08Q171.27 142.20 170.91 114.12Q170.55 86.04 169.47 73.44Q168.39 60.84 157.95 61.92Q147.51 63 132.39 65.88Q117.27 68.76 109.35 70.56Q101.43 72.36 94.23 68.04M133.83 147.24Q143.91 154.44 132.75 155.16Q121.59 155.88 89.91 160.92Q87.03 173.16 84.15 164.88Q81.27 156.60 78.03 144.72Q74.79 132.84 70.11 126.72Q65.43 120.60 73.71 122.40Q81.99 124.20 98.91 120.60Q115.83 117 121.59 114.12Q127.35 111.24 133.11 113.76Q138.87 116.28 143.19 119.52Q147.51 122.76 142.47 127.80Q137.43 132.84 133.83 147.24M84.15 128.52Q85.59 137.88 89.19 155.16Q104.31 153 126.63 148.68Q128.07 140.04 127.71 132.84Q127.35 125.64 125.91 123.48Q124.47 121.32 113.67 123.12Q102.87 124.92 84.15 128.52M99.27 99.72Q90.63 99.72 85.23 96.48Q79.83 93.24 89.19 91.80Q98.55 90.36 106.11 89.28Q113.67 88.20 124.11 85.68Q134.55 83.16 139.23 87.84Q143.91 92.52 125.91 95.76Q107.91 99 99.27 99.72" transform="translate(0)"/><path d="M146 118.92Q169.04 116.76 173.36 114.24Q177.68 111.72 183.80 114.96Q189.92 118.20 194.24 121.44Q198.56 124.68 196.40 128.28Q194.24 131.88 192.80 136.20Q191.36 140.52 189.56 158.16Q187.76 175.80 184.16 185.52Q180.56 195.24 171.56 201.36Q162.56 207.48 161.84 200.64Q161.12 193.80 152.48 185.16Q143.84 176.52 155.36 181.56Q166.88 186.60 170.84 183Q174.80 179.40 177.68 162.84Q180.56 146.28 180.20 136.92Q179.84 127.56 178.04 124.68Q176.24 121.80 166.52 122.16Q156.80 122.52 137.36 125.04Q117.92 127.56 109.28 129.36Q100.64 131.16 97.04 134.40Q93.44 137.64 89.48 131.16Q85.52 124.68 87.68 123.24Q89.84 121.80 92 114.96Q94.16 108.12 94.88 97.68Q95.60 87.24 93.08 81.48Q90.56 75.72 96.68 77.88Q102.80 80.04 106.04 83.64Q109.28 87.24 107.12 90.12Q104.96 93 98.48 122.52Q99.20 124.68 104.60 123.96Q110 123.24 140.24 119.64Q136.64 111.72 138.44 107.40Q140.24 103.08 142.40 93.72Q144.56 84.36 145.64 73.92Q146.72 63.48 144.20 62.40Q141.68 61.32 126.20 64.20Q110.72 67.08 102.80 68.88Q94.88 70.68 88.76 66.36Q82.64 62.04 88.40 62.04Q94.88 62.04 104.96 61.32Q115.04 60.60 125.48 58.44Q135.92 56.28 141.32 53.40Q146.72 50.52 151.04 52.68Q155.36 54.84 160.04 58.08Q164.72 61.32 160.40 65.28Q156.08 69.24 153.56 84Q151.04 98.76 146 118.92M104.24 153.48Q133.76 148.44 140.60 146.28Q147.44 144.12 152.84 146.28Q158.24 148.44 160.76 152.04Q163.28 155.64 150.32 156Q137.36 156.36 112.16 159.60Q86.96 162.84 77.96 165Q68.96 167.16 61.76 162.12Q54.56 157.08 64.64 157.44Q74.72 157.80 104.24 153.48" transform="translate(256)"/><path d="M87.93 84.12Q70.65 88.44 63.45 85.20Q56.25 81.96 67.77 80.16Q79.29 78.36 87.93 75.48Q88.65 58.20 84.33 52.80Q80.01 47.40 90.81 49.92Q101.61 52.44 99.81 56.40Q98.01 60.36 95.85 74.04Q104.49 71.88 109.53 70.44Q114.57 69 117.81 71.16Q121.05 73.32 115.29 75.48Q109.53 77.64 95.85 81.24Q95.13 89.16 95.13 92.76Q107.37 89.16 109.89 91.32Q112.41 93.48 107.01 96Q101.61 98.52 91.89 102.12Q82.17 105.72 76.77 106.80Q71.37 107.88 66.69 105Q62.01 102.12 68.85 100.68Q75.69 99.24 87.93 95.64L87.93 84.12M75.69 167.64Q72.81 172.68 70.29 164.40Q67.77 156.12 64.53 149.64Q61.29 143.16 67.77 145.32Q74.25 147.48 84.69 144.96Q95.13 142.44 98.37 139.56Q101.61 136.68 105.57 138.12Q109.53 139.56 114.21 142.44Q118.89 145.32 114.93 146.76Q110.97 148.20 105.93 156.12Q108.81 162.60 105.57 162.96Q102.33 163.32 95.13 164.04Q83.61 166.20 75.69 167.64M126.09 166.92Q128.25 157.56 130.77 166.92Q133.29 176.28 128.61 189.24Q123.93 202.20 119.61 195.72Q116.01 189.96 118.89 183.48Q116.73 185.64 96.57 193.56Q72.81 202.20 67.05 205.80Q61.29 209.40 53.01 201.84Q44.73 194.28 54.81 195.36Q64.89 196.44 93.69 187.80Q95.85 183.48 96.93 178.08Q98.01 172.68 96.93 169.08Q95.85 165.48 99.81 166.56Q103.77 167.64 107.37 169.44Q110.97 171.24 107.73 174.84Q104.49 178.44 100.89 186.36Q118.89 181.32 119.61 182.76Q123.93 175.56 126.09 166.92M160.65 87.72Q166.41 87 173.97 84.84Q181.53 82.68 185.49 80.52Q189.45 78.36 197.37 84.12Q208.17 92.04 201.33 93.48Q194.49 94.92 185.49 102.48Q176.49 110.04 180.45 101.40Q184.41 92.76 185.49 89.52Q186.57 86.28 175.41 89.88Q164.25 93.48 159.21 90.60Q153.45 97.80 147.69 101.76Q141.93 105.72 146.97 98.16Q152.01 90.60 157.41 75.84Q162.81 61.08 161.73 54.24Q160.65 47.40 165.33 49.56Q170.01 51.72 173.97 54.96Q177.93 58.20 175.05 61.08Q172.17 63.96 160.65 87.72M167.13 115.08Q180.09 127.32 190.17 133.08Q200.25 138.84 208.17 141Q216.09 143.16 208.17 144.96Q200.25 146.76 193.77 146.40Q187.29 146.04 184.05 141.72Q180.81 137.40 176.13 132Q171.45 126.60 165.69 118.68Q162.81 127.32 154.17 137.04Q145.53 146.76 134.37 150.36Q123.21 153.96 134.01 146.04Q144.81 138.12 150.93 128.40Q157.05 118.68 158.49 112.56Q159.93 106.44 158.85 102.12Q157.77 97.80 165.33 101.40Q172.89 105 171.09 107.16Q169.29 109.32 167.13 115.08M56.97 119.40Q67.05 118.68 87.57 113.28Q108.09 107.88 111.69 105.72Q115.29 103.56 124.29 108.96Q133.29 114.36 128.61 115.08Q123.93 115.80 113.85 125.88Q103.77 135.96 108.09 127.68Q112.41 119.40 112.77 115.08Q113.13 110.76 84.33 118.68Q57.69 126.60 56.25 124.44Q54.81 146.04 49.77 146.76Q44.73 147.48 44.01 142.44Q43.29 137.40 46.53 131.28Q49.77 125.16 49.41 117.60Q49.05 110.04 51.21 112.20Q53.37 114.36 56.97 119.40M144.81 171.24Q147.69 180.60 155.97 187.08Q164.25 193.56 172.17 193.92Q180.09 194.28 181.17 193.56Q182.25 192.84 179.37 182.04Q176.49 171.24 182.61 182.04Q188.73 192.84 195.93 194.64Q203.13 196.44 196.65 201.12Q190.17 205.80 175.77 204.72Q161.37 203.64 152.73 195Q144.09 186.36 141.57 175.56Q139.05 164.76 140.49 162.96Q141.93 161.16 144.81 171.24M185.85 156.12Q197.37 159.72 202.41 166.56Q207.45 173.40 205.65 178.44Q203.85 183.48 195.93 176.28Q188.01 169.08 181.53 160.44Q175.05 151.80 185.85 156.12M74.25 151.08Q74.97 156.12 75.69 163.32Q91.53 159.72 99.45 156.84Q100.89 149.64 100.53 147.84Q100.17 146.04 90.09 148.20Q80.01 150.36 74.25 151.08M134.01 118.68L146.25 106.44Q152.01 100.68 144.45 114.72Q136.89 128.76 133.65 134.52Q130.41 140.28 125.73 133.08Q121.05 125.88 124.65 125.16Q128.25 124.44 134.01 118.68M127.53 78.36Q122.49 71.16 132.21 73.68Q141.93 76.20 144.09 81.60Q146.25 87 144.81 90.24Q143.37 93.48 138.33 89.52Q133.29 85.56 127.53 78.36M74.25 130.92Q87.21 128.04 94.05 126.24Q100.89 124.44 103.05 127.32Q105.21 130.20 91.17 133.44Q77.13 136.68 69.21 135.24Q61.29 133.80 74.25 130.92M154.89 151.08Q163.53 154.68 165.69 158.64Q167.85 162.60 165.69 168.36Q163.53 174.12 158.85 166.56Q154.17 159 150.21 153.24Q146.25 147.48 154.89 151.08M67.77 176.28Q65.61 169.80 71.01 172.68Q76.41 175.56 79.29 178.80Q82.17 182.04 81.09 186.36Q80.01 190.68 75.33 186.36Q70.65 182.04 67.77 176.28" transform="translate(512)"/></g></g></svg>